# Blender 3.6.2
# www.blender.org
mtllib mug.mtl
o Cylinder
v 0.031776 -0.370595 -0.368151
v 0.031776 0.368444 -0.368151
v 0.102988 -0.370595 -0.354878
v 0.102988 0.368444 -0.354878
v 0.170242 -0.370595 -0.327967
v 0.170242 0.368444 -0.327967
v 0.230954 -0.370595 -0.288452
v 0.230954 0.368444 -0.288452
v 0.282791 -0.370595 -0.237853
v 0.282791 0.368444 -0.237853
v 0.323760 -0.370595 -0.178113
v 0.323760 0.368444 -0.178113
v 0.352287 -0.370595 -0.111528
v 0.352287 0.368444 -0.111528
v 0.367276 -0.370595 -0.040657
v 0.367276 0.368444 -0.040657
v 0.368151 -0.370595 0.031776
v 0.368151 0.368444 0.031776
v 0.354878 -0.370595 0.102988
v 0.354878 0.368444 0.102988
v 0.327967 -0.370595 0.170242
v 0.327967 0.368444 0.170242
v 0.288452 -0.370595 0.230954
v 0.288452 0.368444 0.230954
v 0.237853 -0.370595 0.282791
v 0.237853 0.368444 0.282791
v 0.178113 -0.370595 0.323760
v 0.178113 0.368444 0.323760
v 0.111528 -0.370595 0.352287
v 0.111528 0.368444 0.352287
v 0.040657 -0.370595 0.367276
v 0.040657 0.368444 0.367276
v -0.031776 -0.370595 0.368151
v -0.031776 0.368444 0.368151
v -0.102988 -0.370595 0.354878
v -0.102988 0.368444 0.354878
v -0.170242 -0.370595 0.327967
v -0.170242 0.368444 0.327967
v -0.230954 -0.370595 0.288452
v -0.230954 0.368444 0.288452
v -0.282791 -0.370595 0.237853
v -0.282791 0.368444 0.237853
v -0.323760 -0.370595 0.178113
v -0.323760 0.368444 0.178113
v -0.352287 -0.370595 0.111528
v -0.352287 0.368444 0.111528
v -0.367276 -0.370595 0.040657
v -0.367276 0.368444 0.040657
v -0.368151 -0.370595 -0.031776
v -0.368151 0.368444 -0.031776
v -0.354878 -0.370595 -0.102988
v -0.354878 0.368444 -0.102988
v -0.327967 -0.370595 -0.170242
v -0.327967 0.368444 -0.170242
v -0.288452 -0.370595 -0.230954
v -0.288452 0.368444 -0.230954
v -0.237853 -0.370595 -0.282791
v -0.237853 0.368444 -0.282791
v -0.178113 -0.370595 -0.323760
v -0.178113 0.368444 -0.323760
v -0.111528 -0.370595 -0.352287
v -0.111528 0.368444 -0.352287
v -0.040657 -0.370595 -0.367276
v -0.040657 0.368444 -0.367276
v 0.030424 -0.355788 -0.352491
v 0.098607 -0.355788 -0.339782
v 0.096970 0.368444 -0.334139
v 0.029919 0.368444 -0.346637
v 0.163001 -0.355788 -0.314016
v 0.160294 0.368444 -0.308801
v 0.221130 -0.355788 -0.276183
v 0.217458 0.368444 -0.271596
v 0.270762 -0.355788 -0.227735
v 0.266265 0.368444 -0.223953
v 0.309988 -0.355788 -0.170536
v 0.304840 0.368444 -0.167704
v 0.337302 -0.355788 -0.106784
v 0.331700 0.368444 -0.105010
v 0.351653 -0.355788 -0.038928
v 0.345813 0.368444 -0.038281
v 0.352491 -0.355788 0.030424
v 0.346637 0.368444 0.029919
v 0.339782 -0.355788 0.098607
v 0.334139 0.368444 0.096970
v 0.314016 -0.355788 0.163001
v 0.308801 0.368444 0.160294
v 0.276183 -0.355788 0.221130
v 0.271596 0.368444 0.217458
v 0.227735 -0.355788 0.270762
v 0.223953 0.368444 0.266265
v 0.170536 -0.355788 0.309988
v 0.167704 0.368444 0.304840
v 0.106784 -0.355788 0.337302
v 0.105010 0.368444 0.331700
v 0.038928 -0.355788 0.351653
v 0.038281 0.368444 0.345813
v -0.030424 -0.355788 0.352491
v -0.029919 0.368444 0.346637
v -0.098607 -0.355788 0.339782
v -0.096970 0.368444 0.334139
v -0.163001 -0.355788 0.314016
v -0.160294 0.368444 0.308801
v -0.221130 -0.355788 0.276183
v -0.217458 0.368444 0.271596
v -0.270762 -0.355788 0.227735
v -0.266265 0.368444 0.223953
v -0.309988 -0.355788 0.170536
v -0.304840 0.368444 0.167704
v -0.337302 -0.355788 0.106784
v -0.331700 0.368444 0.105010
v -0.351653 -0.355788 0.038928
v -0.345813 0.368444 0.038281
v -0.352491 -0.355788 -0.030424
v -0.346637 0.368444 -0.029919
v -0.339782 -0.355788 -0.098607
v -0.334139 0.368444 -0.096970
v -0.314016 -0.355788 -0.163001
v -0.308801 0.368444 -0.160294
v -0.276183 -0.355788 -0.221130
v -0.271596 0.368444 -0.217458
v -0.227735 -0.355788 -0.270762
v -0.223953 0.368444 -0.266265
v -0.170536 -0.355788 -0.309988
v -0.167704 0.368444 -0.304840
v -0.106784 -0.355788 -0.337302
v -0.105010 0.368444 -0.331700
v -0.038928 -0.355788 -0.351653
v -0.038281 0.368444 -0.345813
v 0.031776 0.251429 -0.368151
v -0.040657 0.250056 -0.367276
v 0.031776 0.152200 -0.368151
v -0.040657 0.152125 -0.367276
v 0.028061 0.213422 -0.442490
v 0.030834 0.292426 -0.424053
v -0.041599 0.290802 -0.424166
v -0.044373 0.212842 -0.441831
v 0.031776 -0.148160 -0.368151
v -0.040657 -0.147165 -0.367276
v -0.040657 -0.238666 -0.367276
v 0.031776 -0.238423 -0.368151
v 0.028061 0.213655 -0.496312
v 0.030834 0.294678 -0.500400
v -0.041599 0.293087 -0.500060
v -0.044373 0.213280 -0.495518
v 0.027528 0.156330 -0.572944
v 0.030302 0.230820 -0.605079
v -0.042131 0.229447 -0.604204
v -0.044905 0.156256 -0.572069
v 0.027048 0.094410 -0.592616
v 0.029822 0.127512 -0.666681
v -0.042612 0.127093 -0.665108
v -0.045385 0.094946 -0.591921
v 0.027048 -0.002080 -0.594601
v 0.029822 -0.043823 -0.664163
v -0.042612 -0.042774 -0.662919
v -0.045385 -0.001203 -0.594643
v 0.026349 -0.098124 -0.490970
v 0.029123 -0.139868 -0.560532
v -0.043311 -0.138818 -0.559288
v -0.046084 -0.097247 -0.491012
vn -0.1832 -0.0000 0.9831
vn -0.3715 -0.0000 0.9284
vn -0.5455 -0.0000 0.8381
vn -0.6985 -0.0000 0.7156
vn -0.8247 -0.0000 0.5656
vn -0.9192 -0.0000 0.3938
vn -0.9784 -0.0000 0.2069
vn -0.9999 -0.0000 0.0121
vn -0.9831 -0.0000 -0.1832
vn -0.9284 -0.0000 -0.3715
vn -0.8381 -0.0000 -0.5455
vn -0.7156 -0.0000 -0.6985
vn -0.5656 -0.0000 -0.8247
vn -0.3938 -0.0000 -0.9192
vn -0.2069 -0.0000 -0.9784
vn -0.0121 -0.0000 -0.9999
vn 0.1832 -0.0000 -0.9831
vn 0.3715 -0.0000 -0.9284
vn 0.5455 -0.0000 -0.8381
vn 0.6985 -0.0000 -0.7156
vn 0.8247 -0.0000 -0.5656
vn 0.9192 -0.0000 -0.3938
vn 0.9784 -0.0000 -0.2069
vn 0.9999 -0.0000 -0.0121
vn 0.9831 -0.0000 0.1832
vn 0.9284 -0.0000 0.3715
vn 0.8381 -0.0000 0.5455
vn 0.7156 -0.0000 0.6985
vn 0.5656 -0.0000 0.8247
vn 0.3938 -0.0000 0.9192
vn 0.2069 -0.0000 0.9784
vn 0.0121 -0.0000 0.9999
vn -0.0000 1.0000 -0.0000
vn 0.1832 0.0081 -0.9830
vn 0.3715 0.0081 -0.9284
vn 0.5455 0.0081 -0.8381
vn 0.6985 0.0081 -0.7156
vn 0.8247 0.0081 -0.5656
vn 0.9192 0.0081 -0.3938
vn 0.9783 0.0081 -0.2069
vn 0.9999 0.0081 -0.0121
vn 0.9830 0.0081 0.1832
vn 0.9284 0.0081 0.3715
vn 0.8381 0.0081 0.5455
vn 0.7156 0.0081 0.6985
vn 0.5656 0.0081 0.8247
vn 0.3938 0.0081 0.9192
vn 0.2069 0.0081 0.9783
vn 0.0121 0.0081 0.9999
vn -0.1832 0.0081 0.9830
vn -0.3715 0.0081 0.9284
vn -0.5455 0.0081 0.8381
vn -0.6985 0.0081 0.7156
vn -0.8247 0.0081 0.5656
vn -0.9192 0.0081 0.3938
vn -0.9783 0.0081 0.2069
vn -0.9999 0.0081 0.0121
vn -0.9830 0.0081 -0.1832
vn -0.9284 0.0081 -0.3715
vn -0.8381 0.0081 -0.5455
vn -0.7156 0.0081 -0.6985
vn -0.5656 0.0081 -0.8247
vn -0.3938 0.0081 -0.9192
vn -0.2069 0.0081 -0.9783
vn -0.0121 0.0081 -0.9999
vn -0.0000 -1.0000 -0.0000
vn -0.0079 0.9999 0.0081
vn 0.9990 -0.0274 -0.0361
vn 0.0190 -0.8061 -0.5915
vn -0.9988 -0.0000 0.0499
vn -0.0005 0.7754 0.6315
vn -0.9988 -0.0482 -0.0109
vn -0.0107 0.8019 -0.5973
vn 0.0218 -0.9993 -0.0295
vn 0.9994 -0.0353 -0.0011
vn -0.9994 0.0342 0.0001
vn 0.9992 -0.0238 0.0321
vn 0.0212 -0.8535 0.5206
vn 0.9993 -0.0338 0.0156
vn -0.9994 0.0304 -0.0158
vn 0.9992 0.0005 0.0403
vn -0.9994 0.0172 -0.0297
vn -0.0068 0.3081 -0.9513
vn 0.0201 -0.5121 0.8587
vn -0.0085 -0.7334 -0.6798
vn -0.9993 0.0008 -0.0371
vn -0.0094 0.0283 -0.9996
vn 0.0174 0.0147 0.9997
vn -0.0173 -0.9262 -0.3766
vn 0.0223 0.7332 0.6797
vn 0.9994 0.0220 0.0272
vn -0.9994 -0.0217 -0.0268
vn 0.9990 -0.0000 -0.0438
vn 0.0208 0.8871 0.4610
vn -0.0051 1.0000 0.0043
vn 0.9988 -0.0000 -0.0498
vn 0.0084 -0.8129 -0.5824
vn -0.9990 0.0266 0.0363
vn 0.0069 0.7721 0.6355
vn -0.9990 -0.0000 0.0441
vn -0.0081 0.8007 -0.5990
vn 0.0225 -0.9993 -0.0301
vn 0.9994 -0.0348 -0.0003
vn -0.9994 0.0348 0.0010
vn 0.9994 -0.0176 0.0301
vn 0.0225 -0.8531 0.5212
vn 0.9994 -0.0308 0.0160
vn -0.9993 0.0334 -0.0153
vn 0.9993 -0.0011 0.0374
vn -0.9992 0.0235 -0.0317
vn -0.0118 0.3029 -0.9530
vn 0.0216 -0.5113 0.8591
vn -0.9992 -0.0006 -0.0395
vn 0.0008 0.0206 -0.9998
vn 0.0216 0.0129 0.9997
vn -0.0110 -0.9275 -0.3737
vn 0.9988 0.0482 0.0112
vn 0.0025 0.8900 0.4559
vt 0.448277 1.000060
vt 0.479099 0.883965
vt 0.479099 0.745513
vt 0.936010 0.603293
vt 0.966832 1.000060
vt 0.966832 0.603293
vt 0.905188 0.603293
vt 0.936010 1.000060
vt 0.874366 0.603293
vt 0.905188 1.000060
vt 0.843544 0.603293
vt 0.874366 1.000060
vt 0.812722 0.603293
vt 0.843544 1.000060
vt 0.781900 0.603293
vt 0.812722 1.000060
vt 0.751078 0.603293
vt 0.781900 1.000060
vt 0.720256 0.603293
vt 0.751078 1.000060
vt 0.689434 0.603293
vt 0.720256 1.000060
vt 0.658612 0.603293
vt 0.689434 1.000060
vt 0.627791 0.603293
vt 0.658612 1.000060
vt 0.596969 0.603293
vt 0.627791 1.000060
vt 0.566147 0.603293
vt 0.596969 1.000060
vt 0.535325 0.603293
vt 0.566147 1.000060
vt 0.504503 0.603293
vt 0.535325 1.000060
vt 0.473681 0.603293
vt 0.504503 1.000060
vt 0.442859 0.603293
vt 0.473681 1.000060
vt 0.383229 0.603293
vt 0.418347 1.000060
vt 0.418347 0.603293
vt 0.348111 0.603293
vt 0.383229 1.000060
vt 0.312993 0.603293
vt 0.348111 1.000060
vt 0.277876 0.603293
vt 0.312993 1.000060
vt 0.242758 0.603293
vt 0.277876 1.000060
vt 0.207640 0.603293
vt 0.242758 1.000060
vt 0.172522 0.603293
vt 0.207640 1.000060
vt 0.137405 0.603293
vt 0.172522 1.000060
vt 0.102287 0.603293
vt 0.137405 1.000060
vt 0.067169 0.603293
vt 0.102287 1.000060
vt 0.032051 0.603293
vt 0.067169 1.000060
vt -0.003066 0.603293
vt 0.032051 1.000060
vt 0.515773 0.746047
vt 0.515773 0.883925
vt 0.550891 1.000060
vt 0.480655 0.603293
vt 0.515773 0.698188
vt 0.515773 0.603293
vt 0.703178 0.014612
vt 0.985388 0.203178
vt 0.796822 0.485388
vt 1.000000 0.505913
vt 0.968750 0.005913
vt 1.000000 0.005913
vt 0.968750 0.505913
vt 0.937500 0.005913
vt 0.937500 0.505913
vt 0.906250 0.005913
vt 0.906250 0.505913
vt 0.875000 0.005913
vt 0.875000 0.505913
vt 0.843750 0.005913
vt 0.843750 0.505913
vt 0.812500 0.005913
vt 0.812500 0.505913
vt 0.781250 0.005913
vt 0.781250 0.505913
vt 0.750000 0.005913
vt 0.750000 0.505913
vt 0.718750 0.005913
vt 0.718750 0.505913
vt 0.687500 0.005913
vt 0.687500 0.505913
vt 0.656250 0.005913
vt 0.656250 0.505913
vt 0.625000 0.005913
vt 0.625000 0.505913
vt 0.593750 0.005913
vt 0.593750 0.505913
vt 0.562500 0.005913
vt 0.562500 0.505913
vt 0.531250 0.005913
vt 0.531250 0.505913
vt 0.500000 0.005913
vt 0.500000 0.505913
vt 0.468750 0.005913
vt 0.468750 0.505913
vt 0.437500 0.005913
vt 0.437500 0.505913
vt 0.406250 0.005913
vt 0.406250 0.505913
vt 0.375000 0.005913
vt 0.375000 0.505913
vt 0.343750 0.005913
vt 0.343750 0.505913
vt 0.312500 0.005913
vt 0.312500 0.505913
vt 0.281250 0.005913
vt 0.281250 0.505913
vt 0.250000 0.005913
vt 0.250000 0.505913
vt 0.218750 0.005913
vt 0.218750 0.505913
vt 0.187500 0.005913
vt 0.187500 0.505913
vt 0.156250 0.005913
vt 0.156250 0.505913
vt 0.125000 0.005913
vt 0.125000 0.505913
vt 0.093750 0.005913
vt 0.093750 0.505913
vt 0.062500 0.005913
vt 0.062500 0.505913
vt 0.031250 0.005913
vt 0.031250 0.505913
vt 0.000000 0.005913
vt 0.514612 0.203178
vt 0.550447 0.383337
vt 0.703178 0.485388
vt 0.187500 1.000000
vt 0.218750 1.000000
vt 0.875000 1.000000
vt 0.906250 1.000000
vt 0.593750 1.000000
vt 0.625000 1.000000
vt 0.312500 1.000000
vt 0.343750 1.000000
vt 0.062500 1.000000
vt 0.031250 1.000000
vt 0.718750 1.000000
vt 0.750000 1.000000
vt 0.437500 1.000000
vt 0.468750 1.000000
vt 0.156250 1.000000
vt 0.843750 1.000000
vt 0.562500 1.000000
vt 0.281250 1.000000
vt 0.968750 1.000000
vt 1.000000 1.000000
vt 0.000000 1.000000
vt 0.687500 1.000000
vt 0.406250 1.000000
vt 0.125000 1.000000
vt 0.812500 1.000000
vt 0.531250 1.000000
vt 0.250000 1.000000
vt 0.937500 1.000000
vt 0.656250 1.000000
vt 0.375000 1.000000
vt 0.093750 1.000000
vt 0.781250 1.000000
vt 0.500000 1.000000
vt 0.480655 0.883965
vt 0.480655 0.937238
vt 0.515773 1.000060
vt 0.515773 0.936501
vt 0.549349 0.937238
vt 0.567241 0.994329
vt 0.479099 0.937238
vt 0.497881 0.819062
vt 0.477868 0.745073
vt 0.480944 0.774209
vt 0.574880 0.922682
vt 0.584467 0.883925
vt 0.552477 1.000481
vt 0.570266 0.942160
vt 0.550512 0.822732
vt 0.551674 0.747548
vt 0.584467 0.746047
vt 0.577640 0.800642
vt 0.550580 0.745513
vt 0.495112 0.911707
vt 0.479099 0.603293
vt 0.448277 0.603293
vt 0.479099 1.000060
vt 0.442859 1.000060
vt -0.003066 1.000060
vt 0.550891 0.603293
vt 0.480655 0.698318
vt 0.750000 0.490000
vt 0.658156 0.471731
vt 0.616663 0.449553
vt 0.580294 0.419706
vt 0.528269 0.341844
vt 0.514612 0.296822
vt 0.510000 0.250000
vt 0.528269 0.158156
vt 0.550447 0.116663
vt 0.580294 0.080294
vt 0.616663 0.050447
vt 0.658156 0.028269
vt 0.750000 0.010000
vt 0.796822 0.014612
vt 0.841844 0.028269
vt 0.883337 0.050447
vt 0.919706 0.080294
vt 0.949553 0.116663
vt 0.971731 0.158156
vt 0.990000 0.250000
vt 0.985388 0.296822
vt 0.971731 0.341844
vt 0.949553 0.383337
vt 0.919706 0.419706
vt 0.883337 0.449553
vt 0.841844 0.471731
vt 0.000000 0.505913
vt 0.480655 1.000060
vt 0.584467 0.936501
vt 0.480655 0.745513
vt 0.550512 0.883965
vt 0.478653 0.697572
vt 0.516129 0.699157
s 0
usemtl Material.001
f 4/1/1 131/2/1 137/3/1
f 5/4/2 4/5/2 3/6/2
f 7/7/3 6/8/3 5/4/3
f 9/9/4 8/10/4 7/7/4
f 11/11/5 10/12/5 9/9/5
f 13/13/6 12/14/6 11/11/6
f 15/15/7 14/16/7 13/13/7
f 17/17/8 16/18/8 15/15/8
f 19/19/9 18/20/9 17/17/9
f 21/21/10 20/22/10 19/19/10
f 23/23/11 22/24/11 21/21/11
f 25/25/12 24/26/12 23/23/12
f 27/27/13 26/28/13 25/25/13
f 29/29/14 28/30/14 27/27/14
f 31/31/15 30/32/15 29/29/15
f 33/33/16 32/34/16 31/31/16
f 35/35/17 34/36/17 33/33/17
f 37/37/18 36/38/18 35/35/18
f 39/39/19 38/40/19 37/41/19
f 41/42/20 40/43/20 39/39/20
f 43/44/21 42/45/21 41/42/21
f 45/46/22 44/47/22 43/44/22
f 47/48/23 46/49/23 45/46/23
f 49/50/24 48/51/24 47/48/24
f 51/52/25 50/53/25 49/50/25
f 53/54/26 52/55/26 51/52/26
f 55/56/27 54/57/27 53/54/27
f 57/58/28 56/59/28 55/56/28
f 59/60/29 58/61/29 57/58/29
f 61/62/30 60/63/30 59/60/30
f 138/64/31 132/65/31 62/66/31
f 1/67/32 139/68/32 63/69/32
f 35/70/33 19/71/33 3/72/33
f 68/73/34 66/74/34 65/75/34
f 67/76/35 69/77/35 66/74/35
f 70/78/36 71/79/36 69/77/36
f 72/80/37 73/81/37 71/79/37
f 74/82/38 75/83/38 73/81/38
f 76/84/39 77/85/39 75/83/39
f 78/86/40 79/87/40 77/85/40
f 80/88/41 81/89/41 79/87/41
f 82/90/42 83/91/42 81/89/42
f 84/92/43 85/93/43 83/91/43
f 86/94/44 87/95/44 85/93/44
f 88/96/45 89/97/45 87/95/45
f 90/98/46 91/99/46 89/97/46
f 92/100/47 93/101/47 91/99/47
f 94/102/48 95/103/48 93/101/48
f 96/104/49 97/105/49 95/103/49
f 98/106/50 99/107/50 97/105/50
f 100/108/51 101/109/51 99/107/51
f 102/110/52 103/111/52 101/109/52
f 104/112/53 105/113/53 103/111/53
f 106/114/54 107/115/54 105/113/54
f 108/116/55 109/117/55 107/115/55
f 110/118/56 111/119/56 109/117/56
f 112/120/57 113/121/57 111/119/57
f 114/122/58 115/123/58 113/121/58
f 116/124/59 117/125/59 115/123/59
f 118/126/60 119/127/60 117/125/60
f 120/128/61 121/129/61 119/127/61
f 122/130/62 123/131/62 121/129/62
f 124/132/63 125/133/63 123/131/63
f 126/134/64 127/135/64 125/133/64
f 128/136/65 65/137/65 127/135/65
f 111/138/66 119/139/66 127/140/66
f 54/141/66 116/142/66 52/142/66
f 10/143/66 72/144/66 8/144/66
f 28/145/66 90/146/66 26/146/66
f 46/147/66 108/148/66 44/148/66
f 62/149/66 128/150/66 126/149/66
f 20/151/66 82/152/66 18/152/66
f 38/153/66 100/154/66 36/154/66
f 54/141/66 120/155/66 118/141/66
f 12/156/66 74/143/66 10/143/66
f 30/157/66 92/145/66 28/145/66
f 46/147/66 112/158/66 110/147/66
f 4/159/66 68/160/66 2/160/66
f 2/161/66 128/150/66 64/150/66
f 22/162/66 84/151/66 20/151/66
f 38/153/66 104/163/66 102/153/66
f 58/164/66 120/155/66 56/155/66
f 14/165/66 76/156/66 12/156/66
f 30/157/66 96/166/66 94/157/66
f 50/167/66 112/158/66 48/158/66
f 6/168/66 67/159/66 4/159/66
f 22/162/66 88/169/66 86/162/66
f 42/170/66 104/163/66 40/163/66
f 60/171/66 122/164/66 58/164/66
f 14/165/66 80/172/66 78/165/66
f 34/173/66 96/166/66 32/166/66
f 52/142/66 114/167/66 50/167/66
f 6/168/66 72/144/66 70/168/66
f 26/146/66 88/169/66 24/169/66
f 44/148/66 106/170/66 42/170/66
f 62/149/66 124/171/66 60/171/66
f 18/152/66 80/172/66 16/172/66
f 36/154/66 98/173/66 34/173/66
f 133/174/67 144/65/67 136/65/67
f 129/175/32 64/176/32 130/177/32
f 130/177/68 136/65/68 135/177/68
f 129/178/69 135/179/69 134/178/69
f 129/180/70 133/2/70 131/2/70
f 132/65/71 133/174/71 136/65/71
f 138/64/32 131/181/32 132/65/32
f 140/182/72 157/183/72 158/180/72
f 141/184/73 148/185/73 144/185/73
f 134/178/74 143/186/74 142/187/74
f 136/65/75 143/177/75 135/177/75
f 133/2/76 142/180/76 141/2/76
f 148/65/77 151/177/77 147/177/77
f 143/177/78 146/175/78 142/175/78
f 144/65/79 147/177/79 143/177/79
f 141/2/80 146/180/80 145/2/80
f 151/177/81 156/65/81 155/177/81
f 145/2/82 150/180/82 149/2/82
f 148/185/83 149/188/83 152/185/83
f 147/177/84 150/175/84 146/175/84
f 153/189/85 160/185/85 156/185/85
f 150/180/86 153/2/86 149/2/86
f 149/188/87 156/185/87 152/185/87
f 150/175/88 155/177/88 154/175/88
f 138/190/89 157/191/89 137/192/89
f 155/177/90 158/193/90 154/175/90
f 156/65/91 159/177/91 155/177/91
f 153/2/92 158/180/92 157/183/92
f 139/68/93 160/65/93 138/64/93
f 139/68/94 158/193/94 159/177/94
f 140/182/1 1/194/1 3/195/1
f 3/195/1 4/1/1 137/3/1
f 4/1/1 2/196/1 129/180/1
f 4/1/1 129/180/1 131/2/1
f 137/3/1 140/182/1 3/195/1
f 5/4/2 6/8/2 4/5/2
f 7/7/3 8/10/3 6/8/3
f 9/9/4 10/12/4 8/10/4
f 11/11/5 12/14/5 10/12/5
f 13/13/6 14/16/6 12/14/6
f 15/15/7 16/18/7 14/16/7
f 17/17/8 18/20/8 16/18/8
f 19/19/9 20/22/9 18/20/9
f 21/21/10 22/24/10 20/22/10
f 23/23/11 24/26/11 22/24/11
f 25/25/12 26/28/12 24/26/12
f 27/27/13 28/30/13 26/28/13
f 29/29/14 30/32/14 28/30/14
f 31/31/15 32/34/15 30/32/15
f 33/33/16 34/36/16 32/34/16
f 35/35/17 36/38/17 34/36/17
f 37/37/18 38/197/18 36/38/18
f 39/39/19 40/43/19 38/40/19
f 41/42/20 42/45/20 40/43/20
f 43/44/21 44/47/21 42/45/21
f 45/46/22 46/49/22 44/47/22
f 47/48/23 48/51/23 46/49/23
f 49/50/24 50/53/24 48/51/24
f 51/52/25 52/55/25 50/53/25
f 53/54/26 54/57/26 52/55/26
f 55/56/27 56/59/27 54/57/27
f 57/58/28 58/61/28 56/59/28
f 59/60/29 60/63/29 58/61/29
f 61/62/30 62/198/30 60/63/30
f 62/66/31 61/199/31 138/64/31
f 61/199/31 63/69/31 139/68/31
f 61/199/31 139/68/31 138/64/31
f 130/177/31 64/176/31 62/66/31
f 132/65/31 130/177/31 62/66/31
f 1/67/32 140/200/32 139/68/32
f 3/72/33 1/201/33 63/140/33
f 63/140/33 61/202/33 59/203/33
f 59/203/33 57/204/33 55/139/33
f 55/139/33 53/205/33 51/206/33
f 51/206/33 49/207/33 47/138/33
f 47/138/33 45/208/33 43/209/33
f 43/209/33 41/210/33 39/211/33
f 39/211/33 37/212/33 35/70/33
f 35/70/33 33/213/33 31/214/33
f 31/214/33 29/215/33 27/216/33
f 27/216/33 25/217/33 23/218/33
f 23/218/33 21/219/33 19/71/33
f 19/71/33 17/220/33 15/221/33
f 15/221/33 13/222/33 11/223/33
f 11/223/33 9/224/33 7/225/33
f 7/225/33 5/226/33 3/72/33
f 3/72/33 63/140/33 51/206/33
f 63/140/33 59/203/33 51/206/33
f 59/203/33 55/139/33 51/206/33
f 51/206/33 47/138/33 35/70/33
f 47/138/33 43/209/33 35/70/33
f 43/209/33 39/211/33 35/70/33
f 35/70/33 31/214/33 19/71/33
f 31/214/33 27/216/33 19/71/33
f 27/216/33 23/218/33 19/71/33
f 19/71/33 15/221/33 3/72/33
f 15/221/33 11/223/33 3/72/33
f 11/223/33 7/225/33 3/72/33
f 3/72/33 51/206/33 35/70/33
f 68/73/34 67/76/34 66/74/34
f 67/76/35 70/78/35 69/77/35
f 70/78/36 72/80/36 71/79/36
f 72/80/37 74/82/37 73/81/37
f 74/82/38 76/84/38 75/83/38
f 76/84/39 78/86/39 77/85/39
f 78/86/40 80/88/40 79/87/40
f 80/88/41 82/90/41 81/89/41
f 82/90/42 84/92/42 83/91/42
f 84/92/43 86/94/43 85/93/43
f 86/94/44 88/96/44 87/95/44
f 88/96/45 90/98/45 89/97/45
f 90/98/46 92/100/46 91/99/46
f 92/100/47 94/102/47 93/101/47
f 94/102/48 96/104/48 95/103/48
f 96/104/49 98/106/49 97/105/49
f 98/106/50 100/108/50 99/107/50
f 100/108/51 102/110/51 101/109/51
f 102/110/52 104/112/52 103/111/52
f 104/112/53 106/114/53 105/113/53
f 106/114/54 108/116/54 107/115/54
f 108/116/55 110/118/55 109/117/55
f 110/118/56 112/120/56 111/119/56
f 112/120/57 114/122/57 113/121/57
f 114/122/58 116/124/58 115/123/58
f 116/124/59 118/126/59 117/125/59
f 118/126/60 120/128/60 119/127/60
f 120/128/61 122/130/61 121/129/61
f 122/130/62 124/132/62 123/131/62
f 124/132/63 126/134/63 125/133/63
f 126/134/64 128/136/64 127/135/64
f 128/136/65 68/227/65 65/137/65
f 127/140/66 65/201/66 66/72/66
f 66/72/66 69/226/66 127/140/66
f 69/226/66 71/225/66 127/140/66
f 71/225/66 73/224/66 79/221/66
f 73/224/66 75/223/66 79/221/66
f 75/223/66 77/222/66 79/221/66
f 79/221/66 81/220/66 83/71/66
f 83/71/66 85/219/66 79/221/66
f 85/219/66 87/218/66 79/221/66
f 87/218/66 89/217/66 95/214/66
f 89/217/66 91/216/66 95/214/66
f 91/216/66 93/215/66 95/214/66
f 95/214/66 97/213/66 99/70/66
f 99/70/66 101/212/66 95/214/66
f 101/212/66 103/211/66 95/214/66
f 103/211/66 105/210/66 111/138/66
f 105/210/66 107/209/66 111/138/66
f 107/209/66 109/208/66 111/138/66
f 111/138/66 113/207/66 115/206/66
f 115/206/66 117/205/66 111/138/66
f 117/205/66 119/139/66 111/138/66
f 119/139/66 121/204/66 127/140/66
f 121/204/66 123/203/66 127/140/66
f 123/203/66 125/202/66 127/140/66
f 127/140/66 71/225/66 95/214/66
f 71/225/66 79/221/66 95/214/66
f 79/221/66 87/218/66 95/214/66
f 95/214/66 103/211/66 127/140/66
f 103/211/66 111/138/66 127/140/66
f 54/141/66 118/141/66 116/142/66
f 10/143/66 74/143/66 72/144/66
f 28/145/66 92/145/66 90/146/66
f 46/147/66 110/147/66 108/148/66
f 62/149/66 64/150/66 128/150/66
f 20/151/66 84/151/66 82/152/66
f 38/153/66 102/153/66 100/154/66
f 54/141/66 56/155/66 120/155/66
f 12/156/66 76/156/66 74/143/66
f 30/157/66 94/157/66 92/145/66
f 46/147/66 48/158/66 112/158/66
f 4/159/66 67/159/66 68/160/66
f 2/161/66 68/161/66 128/150/66
f 22/162/66 86/162/66 84/151/66
f 38/153/66 40/163/66 104/163/66
f 58/164/66 122/164/66 120/155/66
f 14/165/66 78/165/66 76/156/66
f 30/157/66 32/166/66 96/166/66
f 50/167/66 114/167/66 112/158/66
f 6/168/66 70/168/66 67/159/66
f 22/162/66 24/169/66 88/169/66
f 42/170/66 106/170/66 104/163/66
f 60/171/66 124/171/66 122/164/66
f 14/165/66 16/172/66 80/172/66
f 34/173/66 98/173/66 96/166/66
f 52/142/66 116/142/66 114/167/66
f 6/168/66 8/144/66 72/144/66
f 26/146/66 90/146/66 88/169/66
f 44/148/66 108/148/66 106/170/66
f 62/149/66 126/149/66 124/171/66
f 18/152/66 82/152/66 80/172/66
f 36/154/66 100/154/66 98/173/66
f 133/174/95 141/174/95 144/65/95
f 129/175/32 2/228/32 64/176/32
f 130/177/96 132/65/96 136/65/96
f 129/178/97 130/229/97 135/179/97
f 129/180/98 134/180/98 133/2/98
f 132/65/99 131/181/99 133/174/99
f 138/64/32 137/230/32 131/181/32
f 140/182/100 137/192/100 157/183/100
f 141/184/101 145/231/101 148/185/101
f 134/178/102 135/179/102 143/186/102
f 136/65/103 144/65/103 143/177/103
f 133/2/104 134/180/104 142/180/104
f 148/65/105 152/65/105 151/177/105
f 143/177/106 147/177/106 146/175/106
f 144/65/107 148/65/107 147/177/107
f 141/2/108 142/180/108 146/180/108
f 151/177/109 152/65/109 156/65/109
f 145/2/110 146/180/110 150/180/110
f 148/185/111 145/231/111 149/188/111
f 147/177/112 151/177/112 150/175/112
f 153/189/85 157/191/85 160/185/85
f 150/180/113 154/180/113 153/2/113
f 149/188/114 153/189/114 156/185/114
f 150/175/115 151/177/115 155/177/115
f 138/190/116 160/185/116 157/191/116
f 155/177/90 159/177/90 158/193/90
f 156/65/91 160/65/91 159/177/91
f 153/2/92 154/180/92 158/180/92
f 139/68/117 159/177/117 160/65/117
f 139/232/118 140/182/118 158/233/118
